<svg width="253" height="72" viewBox="0 0 253 72" fill="none" xmlns="http://www.w3.org/2000/svg">
<path d="M23.754 12.362L25.421 19.529L20.088 24.862L11.754 39.195L12.754 43.862L14.921 45.195L18.921 45.028L22.421 41.695L29.254 39.862C29.254 39.862 30.588 41.362 31.421 42.862C32.254 44.362 35.088 47.029 35.088 47.029L35.588 53.029L33.755 59.195L31.755 62.028C31.755 62.028 53.755 71.528 64.921 55.028L64.421 49.028L62.588 44.028L59.255 38.862L58.255 37.362L58.088 32.195L55.255 26.862L50.255 23.862L47.588 19.362L42.421 15.195L35.921 13.695L30.255 14.695L26.088 12.528L23.754 12.362V12.362Z" fill="white"/>
<path d="M50.671 23.155L55.879 27.25C55.879 27.25 61.443 35.468 55.554 45.07C48.504 56.562 55.554 45.07 55.554 45.07C53.935 48.545 53.239 51.812 53.815 54.792L48.505 50.375V34.292L50.671 23.155V23.155ZM25.898 19.271L10.785 12.021L15.951 18.14L21.175 23.995L25.898 19.271Z" fill="#EA5A47"/>
<path d="M29.737 13.631L40.504 13.767C40.504 13.767 49.742 17.833 51.04 25.583L51.727 34.54C49.094 41.079 48.671 48.667 53.816 55.374C53.816 55.374 46.671 56.695 43.921 48.264L42.338 43.5L42.663 37.466L44.08 31.823L43.797 26.93L41.521 22.618L37.989 19.777L32.197 17.697L29.737 13.631" fill="#92D3F5"/>
<path d="M58.455 36.75C58.455 36.75 63.975 43.157 65.453 51.87C65.6306 52.954 65.5836 54.0629 65.315 55.128C64.884 56.88 64.498 60.126 65.461 62.511C65.93 63.672 64.899 64.876 63.672 64.622C59.962 63.854 54.429 60.975 53.416 56.535C53.3925 56.4295 53.3785 56.322 53.374 56.214L53.108 50.468C53.095 50.182 53.16 49.898 53.295 49.647L56.987 42.811C57.054 42.688 57.104 42.556 57.136 42.419L58.455 36.75Z" fill="#61B2E4"/>
<path d="M58.455 37.783C60.223 40.144 65 44.465 64.5 54.02M32.5 41.885C32.5 41.885 40.978 48.668 32.5 60.65M24.809 19.134L10.25 11.75L21.175 23.995" stroke="black" stroke-width="2" stroke-miterlimit="10" stroke-linecap="round" stroke-linejoin="round"/>
<path d="M35.196 30.87C35.746 39.225 25.874 40.573 23.242 41.204C22.91 41.284 22.61 41.454 22.369 41.696L20.146 43.919C19.796 44.269 19.322 44.465 18.828 44.465H15.316C14.7295 44.4649 14.1579 44.2803 13.6821 43.9373C13.2063 43.5943 12.8505 43.1104 12.665 42.554L12.134 40.961C12.0065 40.5785 11.9633 40.1729 12.0073 39.7721C12.0513 39.3713 12.1815 38.9847 12.389 38.639L21.175 23.995L25.899 19.271L23.783 12.366C23.783 12.366 31.586 11.667 32.197 17.696C32.197 17.696 49.125 20.138 42.75 37.08C42.75 37.08 41.125 43.029 45.125 48.264" stroke="black" stroke-width="2" stroke-miterlimit="10" stroke-linecap="round" stroke-linejoin="round"/>
<path d="M30.917 14.02C30.917 14.02 53.16 10 50.875 33.98" stroke="black" stroke-width="2" stroke-miterlimit="10" stroke-linecap="round" stroke-linejoin="round"/>
<path d="M49.919 23.155C49.919 23.155 64.685 29.742 55.375 45.375C55.375 45.375 50 51.938 56 58.979" stroke="black" stroke-width="2" stroke-miterlimit="10" stroke-linecap="round" stroke-linejoin="round"/>
<path d="M24.417 30.93C25.5216 30.93 26.417 30.0346 26.417 28.93C26.417 27.8254 25.5216 26.93 24.417 26.93C23.3124 26.93 22.417 27.8254 22.417 28.93C22.417 30.0346 23.3124 30.93 24.417 30.93Z" fill="black"/>
<path d="M91.84 47.32C90.2827 47.32 88.9067 47.1173 87.712 46.712C86.5387 46.3067 85.5467 45.7093 84.736 44.92C83.9253 44.1093 83.3173 43.1067 82.912 41.912C82.5067 40.7173 82.304 39.3307 82.304 37.752V26.264C82.304 25.56 82.4747 25.0373 82.816 24.696C83.1787 24.3547 83.6907 24.184 84.352 24.184C85.0133 24.184 85.5147 24.3547 85.856 24.696C86.2187 25.0373 86.4 25.56 86.4 26.264V37.72C86.4 39.7467 86.8587 41.272 87.776 42.296C88.7147 43.2987 90.0693 43.8 91.84 43.8C93.6107 43.8 94.9547 43.2987 95.872 42.296C96.7893 41.272 97.248 39.7467 97.248 37.72V26.264C97.248 25.56 97.4187 25.0373 97.76 24.696C98.1227 24.3547 98.6347 24.184 99.296 24.184C99.936 24.184 100.427 24.3547 100.768 24.696C101.131 25.0373 101.312 25.56 101.312 26.264V37.752C101.312 39.8427 100.949 41.6027 100.224 43.032C99.52 44.4613 98.464 45.5387 97.056 46.264C95.648 46.968 93.9093 47.32 91.84 47.32ZM107.689 47.256C107.049 47.256 106.558 47.0853 106.217 46.744C105.876 46.3813 105.705 45.8693 105.705 45.208V33.112C105.705 32.4507 105.876 31.9493 106.217 31.608C106.558 31.2667 107.038 31.096 107.657 31.096C108.276 31.096 108.756 31.2667 109.097 31.608C109.438 31.9493 109.609 32.4507 109.609 33.112V35.288L109.257 34.488C109.726 33.3573 110.452 32.504 111.433 31.928C112.436 31.3307 113.566 31.032 114.825 31.032C116.084 31.032 117.118 31.2667 117.929 31.736C118.74 32.2053 119.348 32.92 119.753 33.88C120.158 34.8187 120.361 36.0133 120.361 37.464V45.208C120.361 45.8693 120.19 46.3813 119.849 46.744C119.508 47.0853 119.017 47.256 118.377 47.256C117.737 47.256 117.236 47.0853 116.873 46.744C116.532 46.3813 116.361 45.8693 116.361 45.208V37.656C116.361 36.44 116.126 35.5547 115.657 35C115.209 34.4453 114.505 34.168 113.545 34.168C112.372 34.168 111.433 34.5413 110.729 35.288C110.046 36.0133 109.705 36.984 109.705 38.2V45.208C109.705 46.5733 109.033 47.256 107.689 47.256ZM126.408 47.224C125.768 47.224 125.277 47.032 124.936 46.648C124.594 46.264 124.424 45.7307 124.424 45.048V33.304C124.424 32.6 124.594 32.0667 124.936 31.704C125.277 31.32 125.768 31.128 126.408 31.128C127.048 31.128 127.538 31.32 127.88 31.704C128.242 32.0667 128.424 32.6 128.424 33.304V45.048C128.424 45.7307 128.253 46.264 127.912 46.648C127.57 47.032 127.069 47.224 126.408 47.224ZM126.408 28.152C125.661 28.152 125.074 27.9707 124.648 27.608C124.242 27.224 124.04 26.7013 124.04 26.04C124.04 25.3573 124.242 24.8347 124.648 24.472C125.074 24.1093 125.661 23.928 126.408 23.928C127.176 23.928 127.762 24.1093 128.168 24.472C128.573 24.8347 128.776 25.3573 128.776 26.04C128.776 26.7013 128.573 27.224 128.168 27.608C127.762 27.9707 127.176 28.152 126.408 28.152ZM139.812 47.32C138.169 47.32 136.74 46.9893 135.524 46.328C134.308 45.6453 133.369 44.6853 132.708 43.448C132.047 42.2107 131.716 40.76 131.716 39.096C131.716 37.8373 131.897 36.7173 132.26 35.736C132.644 34.7333 133.188 33.8907 133.892 33.208C134.596 32.504 135.449 31.9707 136.452 31.608C137.455 31.224 138.575 31.032 139.812 31.032C140.516 31.032 141.273 31.128 142.084 31.32C142.916 31.512 143.695 31.832 144.42 32.28C144.761 32.4933 144.985 32.7493 145.092 33.048C145.199 33.3467 145.22 33.656 145.156 33.976C145.092 34.2747 144.953 34.5413 144.74 34.776C144.548 34.9893 144.303 35.128 144.004 35.192C143.705 35.2347 143.375 35.16 143.012 34.968C142.543 34.6907 142.063 34.488 141.572 34.36C141.081 34.2107 140.612 34.136 140.164 34.136C139.46 34.136 138.841 34.2533 138.308 34.488C137.775 34.7013 137.316 35.0213 136.932 35.448C136.569 35.8533 136.292 36.3653 136.1 36.984C135.908 37.6027 135.812 38.3173 135.812 39.128C135.812 40.7067 136.185 41.9547 136.932 42.872C137.7 43.768 138.777 44.216 140.164 44.216C140.612 44.216 141.071 44.152 141.54 44.024C142.031 43.896 142.521 43.6933 143.012 43.416C143.375 43.224 143.695 43.16 143.972 43.224C144.271 43.288 144.516 43.4373 144.708 43.672C144.9 43.8853 145.017 44.152 145.06 44.472C145.103 44.7707 145.06 45.0693 144.932 45.368C144.825 45.6667 144.612 45.912 144.292 46.104C143.588 46.5307 142.841 46.84 142.052 47.032C141.263 47.224 140.516 47.32 139.812 47.32ZM154.497 47.32C152.876 47.32 151.468 46.9893 150.273 46.328C149.079 45.6667 148.151 44.728 147.489 43.512C146.828 42.2747 146.497 40.824 146.497 39.16C146.497 37.9013 146.679 36.7813 147.041 35.8C147.425 34.7973 147.969 33.944 148.673 33.24C149.377 32.5147 150.22 31.9707 151.201 31.608C152.183 31.224 153.281 31.032 154.497 31.032C156.119 31.032 157.527 31.3627 158.721 32.024C159.916 32.6853 160.844 33.624 161.505 34.84C162.167 36.056 162.497 37.496 162.497 39.16C162.497 40.4187 162.305 41.5493 161.921 42.552C161.559 43.5547 161.025 44.4187 160.321 45.144C159.617 45.848 158.775 46.392 157.793 46.776C156.812 47.1387 155.713 47.32 154.497 47.32ZM154.497 44.28C155.287 44.28 155.98 44.088 156.577 43.704C157.175 43.32 157.633 42.7547 157.953 42.008C158.295 41.24 158.465 40.2907 158.465 39.16C158.465 37.4533 158.103 36.184 157.377 35.352C156.652 34.4987 155.692 34.072 154.497 34.072C153.708 34.072 153.015 34.264 152.417 34.648C151.82 35.0107 151.351 35.576 151.009 36.344C150.689 37.0907 150.529 38.0293 150.529 39.16C150.529 40.8453 150.892 42.1253 151.617 43C152.343 43.8533 153.303 44.28 154.497 44.28ZM167.847 47.256C167.185 47.256 166.673 47.0853 166.311 46.744C165.969 46.3813 165.799 45.8693 165.799 45.208V33.112C165.799 32.4507 165.969 31.9493 166.311 31.608C166.652 31.2667 167.132 31.096 167.751 31.096C168.369 31.096 168.849 31.2667 169.191 31.608C169.532 31.9493 169.703 32.4507 169.703 33.112V35.128H169.383C169.681 33.848 170.268 32.8773 171.143 32.216C172.017 31.5547 173.18 31.16 174.631 31.032C175.079 30.9893 175.431 31.1067 175.687 31.384C175.964 31.64 176.124 32.0453 176.167 32.6C176.209 33.1333 176.081 33.5707 175.783 33.912C175.505 34.232 175.079 34.424 174.503 34.488L173.799 34.552C172.497 34.68 171.516 35.0853 170.855 35.768C170.193 36.4293 169.863 37.368 169.863 38.584V45.208C169.863 45.8693 169.692 46.3813 169.351 46.744C169.009 47.0853 168.508 47.256 167.847 47.256ZM180.314 47.256C179.674 47.256 179.183 47.0853 178.842 46.744C178.501 46.3813 178.33 45.8693 178.33 45.208V33.112C178.33 32.4507 178.501 31.9493 178.842 31.608C179.183 31.2667 179.663 31.096 180.282 31.096C180.901 31.096 181.381 31.2667 181.722 31.608C182.063 31.9493 182.234 32.4507 182.234 33.112V35.288L181.882 34.488C182.351 33.3573 183.077 32.504 184.058 31.928C185.061 31.3307 186.191 31.032 187.45 31.032C188.709 31.032 189.743 31.2667 190.554 31.736C191.365 32.2053 191.973 32.92 192.378 33.88C192.783 34.8187 192.986 36.0133 192.986 37.464V45.208C192.986 45.8693 192.815 46.3813 192.474 46.744C192.133 47.0853 191.642 47.256 191.002 47.256C190.362 47.256 189.861 47.0853 189.498 46.744C189.157 46.3813 188.986 45.8693 188.986 45.208V37.656C188.986 36.44 188.751 35.5547 188.282 35C187.834 34.4453 187.13 34.168 186.17 34.168C184.997 34.168 184.058 34.5413 183.354 35.288C182.671 36.0133 182.33 36.984 182.33 38.2V45.208C182.33 46.5733 181.658 47.256 180.314 47.256ZM200.861 53.016C200.391 53.016 200.007 52.888 199.709 52.632C199.41 52.3973 199.229 52.0773 199.165 51.672C199.122 51.2667 199.197 50.84 199.389 50.392L201.565 45.56V47.224L195.741 33.752C195.549 33.2827 195.485 32.8453 195.549 32.44C195.613 32.0347 195.805 31.7147 196.125 31.48C196.466 31.224 196.925 31.096 197.501 31.096C197.991 31.096 198.386 31.2133 198.685 31.448C198.983 31.6613 199.25 32.0773 199.485 32.696L203.805 43.48H202.845L207.261 32.664C207.495 32.0667 207.773 31.6613 208.093 31.448C208.413 31.2133 208.839 31.096 209.373 31.096C209.842 31.096 210.215 31.224 210.493 31.48C210.77 31.7147 210.941 32.0347 211.005 32.44C211.069 32.824 210.994 33.2507 210.781 33.72L203.005 51.48C202.727 52.0773 202.429 52.4827 202.109 52.696C201.789 52.9093 201.373 53.016 200.861 53.016ZM214.125 47.16C213.4 47.16 212.813 46.936 212.365 46.488C211.938 46.04 211.725 45.464 211.725 44.76C211.725 44.0773 211.938 43.5227 212.365 43.096C212.813 42.648 213.4 42.424 214.125 42.424C214.872 42.424 215.448 42.648 215.853 43.096C216.28 43.5227 216.493 44.0773 216.493 44.76C216.493 45.464 216.28 46.04 215.853 46.488C215.448 46.936 214.872 47.16 214.125 47.16ZM225.201 47.32C224.07 47.32 223.057 47.1067 222.161 46.68C221.286 46.232 220.593 45.6347 220.081 44.888C219.59 44.1413 219.345 43.2987 219.345 42.36C219.345 41.208 219.643 40.3013 220.241 39.64C220.838 38.9573 221.809 38.4667 223.153 38.168C224.497 37.8693 226.299 37.72 228.561 37.72H230.161V40.024H228.593C227.27 40.024 226.214 40.088 225.425 40.216C224.635 40.344 224.07 40.568 223.729 40.888C223.409 41.1867 223.249 41.6133 223.249 42.168C223.249 42.872 223.494 43.448 223.985 43.896C224.475 44.344 225.158 44.568 226.033 44.568C226.737 44.568 227.355 44.408 227.889 44.088C228.443 43.7467 228.881 43.288 229.201 42.712C229.521 42.136 229.681 41.4747 229.681 40.728V37.048C229.681 35.9813 229.446 35.2133 228.977 34.744C228.507 34.2747 227.718 34.04 226.609 34.04C225.99 34.04 225.318 34.1147 224.593 34.264C223.889 34.4133 223.142 34.6693 222.353 35.032C221.947 35.224 221.585 35.2773 221.265 35.192C220.966 35.1067 220.731 34.936 220.561 34.68C220.39 34.4027 220.305 34.104 220.305 33.784C220.305 33.464 220.39 33.1547 220.561 32.856C220.731 32.536 221.019 32.3013 221.425 32.152C222.406 31.7467 223.345 31.4587 224.241 31.288C225.158 31.1173 225.99 31.032 226.737 31.032C228.273 31.032 229.531 31.2667 230.513 31.736C231.515 32.2053 232.262 32.92 232.753 33.88C233.243 34.8187 233.489 36.0347 233.489 37.528V45.208C233.489 45.8693 233.329 46.3813 233.009 46.744C232.689 47.0853 232.23 47.256 231.633 47.256C231.035 47.256 230.566 47.0853 230.225 46.744C229.905 46.3813 229.745 45.8693 229.745 45.208V43.672H230.001C229.851 44.4187 229.553 45.0693 229.105 45.624C228.678 46.1573 228.134 46.5733 227.473 46.872C226.811 47.1707 226.054 47.32 225.201 47.32ZM239.533 47.224C238.893 47.224 238.402 47.032 238.061 46.648C237.719 46.264 237.549 45.7307 237.549 45.048V33.304C237.549 32.6 237.719 32.0667 238.061 31.704C238.402 31.32 238.893 31.128 239.533 31.128C240.173 31.128 240.663 31.32 241.005 31.704C241.367 32.0667 241.549 32.6 241.549 33.304V45.048C241.549 45.7307 241.378 46.264 241.037 46.648C240.695 47.032 240.194 47.224 239.533 47.224ZM239.533 28.152C238.786 28.152 238.199 27.9707 237.773 27.608C237.367 27.224 237.165 26.7013 237.165 26.04C237.165 25.3573 237.367 24.8347 237.773 24.472C238.199 24.1093 238.786 23.928 239.533 23.928C240.301 23.928 240.887 24.1093 241.293 24.472C241.698 24.8347 241.901 25.3573 241.901 26.04C241.901 26.7013 241.698 27.224 241.293 27.608C240.887 27.9707 240.301 28.152 239.533 28.152Z" fill="black"/>
</svg>
